<svg id="Layer_1" xmlns="http://www.w3.org/2000/svg" viewBox="0 0 291.6 97"><style>.st1057{fill:#fff}.st1076{fill:#ffd200}.st1077{fill:#f9ed32}.st1078{fill:#56bcc1}.st1079{fill:#95d1db}.st1081{fill:#1b75bb}.st1082{fill:#23bbb8}.st1083{fill:#eb008b}.st1086{fill:#1295c9}.st1087{fill-rule:evenodd;clip-rule:evenodd}.st1087,.st1088{fill:#666}.st1090{fill:#e56ba4}</style><path class="st1076" d="M9.1 79.9s.4-.3 1.2.2c.8.4 5.7 2.6 6.6 1.2 0 0 .5 1.6-1.3 2.7-1.9 1.1-6.6-1.3-7.3-2.9l.8-1.2zM4.7 87.2c.9.5 6.1 2.9 7.1 1.3 0 0 .5 1.8-1.6 3.1-2.1 1.4-6-.6-8.2-2.5l2.7-1.9z"/><path class="st1077" d="M9.1 79.9l-1.9 2.4s6.2 5.2 3.6 8.8c0 0 3.8-3.7 1.3-7.3-2.3-3.5-3-3.9-3-3.9zM14.6 84.3s2.3-.5 1.6-4.1c-.6-4 4.9-5.2 4.9-5.2l2.6 2s-5.4-1-5.8 2.4c-.4 3.7-.9 4.4-3.3 4.9z"/><path class="st1078" d="M277.2 32.9s-.2.4.2 1.1c.4.8 2.6 5.2 1.3 6.1 0 0 1.5.4 2.5-1.3 1-1.8-1.4-6.1-2.9-6.8l-1.1.9zM283.9 28.5c.5.8 2.9 5.6 1.4 6.6 0 0 1.7.4 2.9-1.6s-.8-5.6-2.5-7.6l-1.8 2.6z"/><path class="st1079" d="M277.2 32.9l2.2-1.8s5.1 5.7 8.3 3.1c0 0-3.3 3.6-6.8 1.4-3.3-2.1-3.7-2.7-3.7-2.7zM281.5 37.8s-.4 2.1-3.8 1.6c-3.8-.5-4.7 4.7-4.7 4.7l2 2.3s-1-5 2.1-5.4c3.3-.4 3.9-.9 4.4-3.2z"/><g opacity=".81"><path class="st1081" d="M140.6 29.6l-5.7-3.1 5.9-5.8 8.8 4.5z"/><path class="st1082" d="M229.3 50.1l-4 .3-.4-2.5 2.8-1.8zM186 59.3l-4 .2-.5-2.4 2.9-1.9zM188.4 39.1l-4 .2-.5-2.4 2.9-1.9zM107.1 38l-4.1.3-.4-2.4 2.8-1.9zM169.4 16.2l-4.1.3-.4-2.4 2.8-1.9zM243.4 69.4l-4 .3-.4-2.5 2.8-1.9zM260.1 31.6l-4 .3-.5-2.5 2.9-1.9zM85.1 23.6l-4 .3-.5-2.5 2.9-1.9z"/><path class="st1083" d="M209.3 57.2l.2 2.5-3-1.4-.2-3.3zM98.5 75.8L96.2 77v-3.1l3.2-1.6zM203.9 32.5l-2.4 1.2.1-3.1 3.2-1.6zM146.4 52.3l-2.5 1 .5-3.1 3.3-1.3z"/><path class="st1076" d="M143.3 68.8l.2 4-4.5-.1-.3-4.8zM120.2 14.6l-4 1.3-1.2-4.1 4.9-1.5zM170 39.4l-4.1 1.4-1.1-4.1 4.9-1.6zM249 87.5l-4.1 1.3-1.1-4.1 4.9-1.5z"/><path class="st1081" d="M156.5 94.2l-3.1-3.1 5.1-2.7 4.8 4.6zM114.1 77.6l-3.1-3.1 5.2-2.6 4.8 4.7zM122.5 47.1l3.5.7-1.9 3.9-5.4-.9zM242.1 12.3l2.7-2.2L247 14l-4.1 3.3zM268.7 12.3l2.7-2.2 2.2 3.9-4.1 3.3z"/><path class="st1082" d="M171.6 76.6l-8.2.5-.8-4.9 5.7-3.8z"/><path class="st1083" d="M231.9 30.2l-.2 6.4-7.6-3.7.4-8.5z"/><path class="st1082" d="M82.4 72.3l-3.5.3-.4-2.2 2.5-1.6zM35.6 68l-3.5.3-.4-2.2 2.5-1.6z"/><path class="st1083" d="M111.3 45.3l.2 2.2-2.7-1.2-.1-2.9zM71.8 84.1l2.4-.1-1.5 2.4h-3.1z"/><path class="st1076" d="M52.7 18l-3.1 1.6-1.5-3.6 3.7-1.9zM92.9 49.5l-3.5 1.2-1-3.6 4.2-1.3z"/><path class="st1081" d="M15.4 68.3l-2.7-2.6 4.5-2.4 4.2 4z"/><path class="st1082" d="M56.1 40.6l-3.4-6.2 3.6-2.4 5 3.1z"/><path class="st1083" d="M220 93.5l-4.4 1.8.1-5.5 5.8-2.5zM49 77.9l-4.4 1.8.2-5.5 5.8-2.4z"/><path class="st1079" d="M16.3 39.2l-5-5.5 5.7-4.8 6 6.6z"/></g><g><path class="st1086" d="M214.4 10.5l10 7.7v10.6l8.1-5.4 7.8 5.5 17.6-27.5-43.5 9.1zm14.7 10.3l-2.9 4.8v-8.1l26.1-12.6-23.2 15.9zM31.9 39.6h4.5v22.6h-4.5V39.6zM40.9 62.2V39.6h1.5l14.1 14.1V39.6H61v22.6h-1.7l-14-14v14h-4.4zM84.1 39.6v4.2h-7.5v18.3h-4.5V43.8h-7.5v-4.2h19.5zM87.4 62.2V39.6H104v4.2H91.9v4.8h9v4.2h-9v5.1h12v4.2H87.4zM122.1 52.3l5.6 9.8h-5.2l-5.4-9.3H113v9.3h-4.5V39.6h9.8c5.3 0 7.9 2.2 7.9 6.5.1 3.2-1.3 5.3-4.1 6.2zm-9.1-3.7h6.3c1.8 0 2.7-.9 2.8-2.5 0-1.5-1-2.3-2.8-2.3H113v4.8zM130.1 62.2V39.6h1.5l14.1 14.1V39.6h4.5v22.6h-1.7l-14-14v14h-4.4z"/><g><path class="st1087" d="M190.2 36.9c10.8-1.6 21-5.3 31.5-8.8-3.2 2.6-27.5 9.4-31.5 8.8zM232.5 23.4l-8.1 5.4 4.7-8z"/><path class="st1088" d="M167.1 40.3c1.2.5 2.2 1.3 3.2 2.3l-3 3c-1-1.2-2.4-1.8-4.2-1.8-1.8 0-3 .4-3.5 1.3s-.5 1.6 0 2.2c.5.6 1.7 1.1 3.5 1.4 1.9.2 3.6.8 5.2 1.9 1.6 1.1 2.3 2.7 2.3 5 0 1.8-.8 3.4-2.5 4.7-1.7 1.3-3.6 2-5.8 2-2.1 0-3.8-.3-5.3-.9-1.4-.6-2.6-1.4-3.6-2.4l3-3c1 1.2 2.7 1.9 5.1 2.1 2 0 3.3-.4 3.8-1.3s.5-1.7 0-2.6c-.5-.9-1.7-1.4-3.8-1.6-1.8-.2-3.5-.8-5-1.7-1.5-.9-2.3-2.5-2.3-4.7 0-2 .9-3.6 2.6-4.8 1.7-1.2 3.5-1.8 5.3-1.8 2.2 0 3.9.2 5 .7zM174.7 62.2V39.6h4.5v9h10.5v-9h4.5v22.6h-4.5v-9.3h-10.5v9.3h-4.5zM197.9 62.2l9-22.6h4.5l9 22.5h-4.8l-1.4-3.5H204l-1.4 3.5h-4.7zm11.4-16.6l-3.4 8.6h6.8l-3.4-8.6zM228.4 39.6v18.3h12v4.2h-16.5V39.6h4.5zM242.9 62.2l9-22.6h4.5l9 22.5h-4.8l-1.4-3.5H249l-1.4 3.5h-4.7zm11.4-16.6l-3.4 8.6h6.8l-3.4-8.6zM123.3 69.1c-.5 0-.8-.4-.8-.9s.3-.8.9-.8c.5 0 .8.4.8.8 0 .5-.4.9-.9.9zm-.6 8.6v-7.3h1.3v7.3h-1.3zM126.2 72.4c0-.8 0-1.4-.1-2h1.2l.1 1.2c.4-.7 1.2-1.4 2.4-1.4 1 0 2.6.6 2.6 3.1v4.4h-1.3v-4.2c0-1.2-.4-2.2-1.7-2.2-.9 0-1.5.6-1.8 1.4-.1.2-.1.4-.1.6v4.4h-1.3v-5.3zM136.1 68.7v1.7h1.9v1h-1.9v3.9c0 .9.3 1.4 1 1.4.4 0 .6 0 .8-.1l.1 1c-.3.1-.7.2-1.2.2-.6 0-1.1-.2-1.4-.6-.4-.4-.5-1.1-.5-1.9v-4h-1.1v-1h1.1V69l1.2-.3zM140.2 74.3c0 1.8 1.2 2.5 2.5 2.5 1 0 1.5-.2 2-.4l.2.9c-.5.2-1.3.5-2.4.5-2.2 0-3.6-1.5-3.6-3.7s1.3-4 3.4-4c2.4 0 3 2.1 3 3.4v.6l-5.1.2zm3.8-1c0-.8-.3-2.2-1.8-2.2-1.4 0-1.9 1.2-2 2.2h3.8zM147 72.7c0-.9 0-1.6-.1-2.3h1.2l.1 1.4c.3-1 1.2-1.6 2-1.6h.4v1.2h-.5c-.9 0-1.6.7-1.8 1.7v4.5H147v-4.9zM152 72.4c0-.8 0-1.4-.1-2h1.2l.1 1.2c.4-.7 1.2-1.4 2.4-1.4 1 0 2.6.6 2.6 3.1v4.4h-1.3v-4.2c0-1.2-.4-2.2-1.7-2.2-.9 0-1.5.6-1.8 1.4-.1.2-.1.4-.1.6v4.4H152v-5.3zM160.1 76.4c.4.2 1.1.5 1.8.5 1 0 1.4-.5 1.4-1.1 0-.6-.4-1-1.3-1.3-1.3-.5-1.9-1.2-1.9-2.1 0-1.2 1-2.1 2.5-2.1.7 0 1.4.2 1.8.5l-.3.9c-.3-.2-.8-.4-1.5-.4-.8 0-1.2.5-1.2 1 0 .6.4.9 1.4 1.3 1.2.5 1.9 1.1 1.9 2.2 0 1.3-1 2.2-2.7 2.2-.8 0-1.5-.2-2.1-.5l.2-1.1zM166.3 67h1.3v4.6c.2-.4.5-.7.9-.9.4-.2.9-.4 1.4-.4 1 0 2.5.6 2.5 3.1v4.3h-1.3v-4.2c0-1.2-.4-2.2-1.7-2.2-.9 0-1.5.6-1.8 1.3-.1.2-.1.4-.1.6v4.4h-1.3V67zM175.3 69.1c-.5 0-.8-.4-.8-.9s.3-.8.9-.8c.5 0 .8.4.8.8 0 .5-.3.9-.9.9zm-.6 8.6v-7.3h1.3v7.3h-1.3zM178.2 72.8c0-.9 0-1.7-.1-2.4h1.2l.1 1.3c.5-.9 1.4-1.4 2.6-1.4 1.8 0 3.1 1.5 3.1 3.7 0 2.6-1.6 3.9-3.3 3.9-1 0-1.8-.4-2.2-1.1v4h-1.3v-8zm1.3 1.9c0 .2 0 .4.1.5.2.9 1 1.6 2 1.6 1.4 0 2.2-1.1 2.2-2.8 0-1.5-.8-2.7-2.2-2.7-.9 0-1.8.6-2 1.6 0 .2-.1.4-.1.5v1.3zM186.6 76.4c.4.2 1.1.5 1.8.5.9 0 1.4-.5 1.4-1.1 0-.6-.4-1-1.3-1.3-1.3-.5-1.9-1.2-1.9-2.1 0-1.2 1-2.1 2.5-2.1.7 0 1.4.2 1.8.5l-.3.9c-.3-.2-.8-.4-1.5-.4-.8 0-1.2.5-1.2 1 0 .6.4.9 1.4 1.3 1.3.5 1.9 1.1 1.9 2.2 0 1.3-1 2.2-2.7 2.2-.8 0-1.5-.2-2.1-.5l.2-1.1zM197.6 68.7v1.7h1.9v1h-1.9v3.9c0 .9.3 1.4 1 1.4.4 0 .6 0 .8-.1l.1 1c-.3.1-.7.2-1.2.2-.6 0-1.1-.2-1.4-.6-.4-.4-.5-1.1-.5-1.9v-4h-1.1v-1h1.1V69l1.2-.3zM200.9 67h1.3v4.6c.2-.4.5-.7.9-.9.4-.2.9-.4 1.4-.4 1 0 2.6.6 2.6 3.1v4.3h-1.3v-4.2c0-1.2-.4-2.2-1.7-2.2-.9 0-1.5.6-1.8 1.3-.1.2-.1.4-.1.6v4.4h-1.3V67zM214.5 76c0 .6 0 1.3.1 1.8h-1.2l-.1-.9c-.4.6-1.2 1.1-2.2 1.1-1.5 0-2.2-1-2.2-2.1 0-1.8 1.6-2.7 4.4-2.7V73c0-.6-.2-1.7-1.7-1.7-.7 0-1.4.2-1.9.5l-.3-.9c.6-.4 1.5-.6 2.4-.6 2.2 0 2.8 1.5 2.8 3V76zm-1.3-2c-1.4 0-3.1.2-3.1 1.6 0 .9.6 1.3 1.2 1.3 1 0 1.6-.6 1.8-1.2 0-.1.1-.3.1-.4V74zM218.1 68.7v1.7h1.9v1h-1.9v3.9c0 .9.3 1.4 1 1.4.4 0 .6 0 .8-.1l.1 1c-.3.1-.7.2-1.2.2-.6 0-1.1-.2-1.4-.6-.4-.4-.5-1.1-.5-1.9v-4h-1.1v-1h1.1V69l1.2-.3zM224.7 72.4c0-.8 0-1.4-.1-2h1.2l.1 1.2c.4-.7 1.1-1.3 2.3-1.3 1 0 1.7.6 2.1 1.5.2-.4.5-.7.8-1 .4-.3.9-.5 1.6-.5 1 0 2.4.6 2.4 3.2v4.3h-1.3v-4.1c0-1.4-.5-2.2-1.6-2.2-.8 0-1.3.6-1.6 1.2-.1.2-.1.4-.1.7v4.5h-1.3v-4.4c0-1.2-.5-2-1.5-2-.8 0-1.4.7-1.6 1.3-.1.2-.1.4-.1.6v4.4h-1.3v-5.4zM242.4 76c0 .6 0 1.3.1 1.8h-1.2l-.1-.9c-.4.6-1.2 1.1-2.2 1.1-1.5 0-2.2-1-2.2-2.1 0-1.8 1.6-2.7 4.4-2.7V73c0-.6-.2-1.7-1.7-1.7-.7 0-1.4.2-1.9.5l-.3-.9c.6-.4 1.5-.6 2.4-.6 2.3 0 2.8 1.5 2.8 3V76zm-1.3-2c-1.4 0-3.1.2-3.1 1.6 0 .9.6 1.3 1.2 1.3 1 0 1.6-.6 1.8-1.2 0-.1.1-.3.1-.4V74zM246.1 68.7v1.7h1.9v1h-1.9v3.9c0 .9.3 1.4 1 1.4.4 0 .6 0 .8-.1l.1 1c-.3.1-.7.2-1.2.2-.6 0-1.1-.2-1.4-.6-.4-.4-.5-1.1-.5-1.9v-4h-1.1v-1h1.1V69l1.2-.3zM251.1 68.7v1.7h1.9v1h-1.9v3.9c0 .9.3 1.4 1 1.4.4 0 .6 0 .8-.1l.1 1c-.3.1-.7.2-1.2.2-.6 0-1.1-.2-1.4-.6-.4-.4-.5-1.1-.5-1.9v-4h-1.1v-1h1.1V69l1.2-.3zM255.2 74.3c0 1.8 1.2 2.5 2.5 2.5.9 0 1.5-.2 2-.4l.2.9c-.5.2-1.3.5-2.4.5-2.2 0-3.6-1.5-3.6-3.7s1.3-4 3.4-4c2.4 0 3 2.1 3 3.4v.6l-5.1.2zm3.8-1c0-.8-.3-2.2-1.8-2.2-1.4 0-1.9 1.2-2 2.2h3.8zM262 72.7c0-.9 0-1.6-.1-2.3h1.2l.1 1.4c.3-1 1.1-1.6 2-1.6h.4v1.2h-.5c-.9 0-1.6.7-1.8 1.7v4.5H262v-4.9z"/></g></g><g><path d="M46.5 35.9S37.8 47.1 27 48.8c0 0-4.2-22.6-2.9-23.4 1.3-.7 22.4 10.5 22.4 10.5z" fill="#f7b231"/><path class="st1076" d="M18.5 25c.6-.6 1.4-.8 2.3-.8-.9-.8-1.7-1.8-1.8-3.1 0-.3.2-.6.5-.7 2-.7 3 1 3.9 2.7 0-.5 0-.9-.1-1.4-.1-1-.1-2.1.6-2.9.4-.4.9-.3 1.3.1.9 1.1 1.1 2.5 1 3.9-.1.7-.2 1.8-.7 2.5v.4c-.6 1.1-2.1 1.4-3.3 1.5-1.3.2-2.6-.2-3.5-1.1-.4-.3-.5-.8-.2-1.1z"/><path class="st1090" d="M27.2 27.6c.6-.2 1.2.2 1.4.8.2.6-.2 1.2-.8 1.4-.6.2-1.2-.2-1.4-.8-.1-.6.2-1.3.8-1.4z"/><circle class="st1090" cx="26.9" cy="33" r="1.3"/><path class="st1090" d="M29.6 31.1c.3-.5.9-.7 1.3-.4.4.2.6.7.5 1.1-.1.6-.9 1-1.5.7-.3-.3-.5-.9-.3-1.4z"/><circle class="st1090" cx="33.7" cy="32.4" r="1.4"/><path class="st1090" d="M30 35.2c.3-.6 1.1-.7 1.6-.3l.2.2c.2.4.2.9-.1 1.2-.3.4-.8.4-1.2.2.1 0 .1 0 .2.1-.7-.1-1-.9-.7-1.4zM26.7 38.3c0-.3.1-.6.3-.8.1-.1.2-.2.3-.2.1-.1.2-.1.4-.2.3-.1.6-.1.9.1.5.3.8 1 .5 1.5-.2.4-.6.7-1.1.7-.3 0-.6-.1-.8-.3-.3-.2-.5-.5-.5-.8zM35.1 35.9c.1-.6.8-1 1.3-.8.4.1.7.4.8.8.1.3 0 .5-.1.9-.2.5-.8.7-1.2.6-.6-.3-.9-.9-.8-1.5zM38.3 35.5c0-.6.4-1 1-1 .5-.1 1 .5 1 1 0 .6-.4 1-1 1s-1-.5-1-1zM39.4 38.4v-.2c0-.3.2-.5.4-.6h.2c.1 0 .2-.1.3-.1h.1c.4-.1.8.3 1 .7.1.4 0 .9-.4 1.1h-.1s-.1 0-.1.1h-.1-.1-.1c-.3 0-.5-.1-.7-.3-.1-.1-.1-.1-.1-.2s-.1-.2-.1-.2c-.2-.1-.2-.2-.2-.3zM36.4 39.7c1.8-.6 2.7 2.3.9 2.8-1.9.6-2.7-2.2-.9-2.8z"/><circle class="st1090" cx="32.7" cy="38.4" r="1.1"/><circle class="st1090" cx="30" cy="41" r="1"/><path d="M26.4 37.7c-.4-2-1.3-4.9-.6-6.9.2-.5.7-.6 1-.2.7.9.9 2.1 1.2 3.1.4 1.2.7 2.5 1.1 3.8.6 2.1 1.6 4.7 1.2 6.8-.2 1-1.9 1.5-2.4.4-1-2-1-4.7-1.5-7z" opacity=".2" fill="#650e81"/><path class="st1057" d="M23.8 20.2c-.1-.6.9-.9 1.2-.4.3.6.7 1.4.2 2-.2.3-.6.2-.8 0-.5-.3-.5-1-.6-1.6zM20.7 21.4c.4 0 .7.2.9.4l.3.3c.1.2.2.5-.1.7-.3.2-.6 0-.9-.2-.3-.2-.6-.4-.6-.7 0-.2.1-.5.4-.5zM36.9 31.5c.4.2.8.5 1.3.7.6.3 1.2.6 1.7.9 1 .5 2 .9 2.4 2 .1.2-.1.4-.3.4-1.2.1-2.3-.5-3.4-1-1-.5-2.4-1-2.8-2.1-.3-.7.6-1.1 1.1-.9z"/></g></svg>